<?xml version="1.0" standalone="no"?><!DOCTYPE svg PUBLIC "-//W3C//DTD SVG 1.1//EN" "http://www.w3.org/Graphics/SVG/1.1/DTD/svg11.dtd"><svg t="1634221170065" class="icon" viewBox="0 0 1024 1024" version="1.1" xmlns="http://www.w3.org/2000/svg" p-id="2795" width="128" height="128" xmlns:xlink="http://www.w3.org/1999/xlink"><defs><style type="text/css"></style></defs><path d="M704 475.815385c-2.461538-5.415385-7.876923-8.615385-13.538462-8.615385H541.538462l67.938461-226.953846c1.969231-6.892308-0.984615-14.030769-7.138461-17.476923a14.72 14.72 0 0 0-18.461539 3.446154L322.215385 532.184615a15.123692 15.123692 0 0 0-2.215385 16c2.461538 5.415385 7.876923 8.615385 13.538462 8.615385H482.461538L414.523077 783.753846c-1.969231 6.892308 0.984615 14.030769 7.138461 17.476923 2.215385 1.230769 4.676923 1.723077 7.138462 1.723077 4.184615 0 8.369231-1.723077 11.323077-5.169231l261.415385-306.215384c3.938462-4.184615 4.923077-10.584615 2.461538-15.753846z" fill="#fac14d" p-id="2796"></path><path d="M512 1022.030769C230.646154 1022.030769 1.969231 793.107692 1.969231 512 1.969231 230.892308 230.646154 1.969231 512 1.969231c281.353846 0 510.030769 228.923077 510.030769 510.030769 0 281.107692-228.676923 510.030769-510.030769 510.030769z m0-960.246154C263.876923 61.784615 61.784615 263.630769 61.784615 512S263.630769 962.215385 512 962.215385 962.215385 760.369231 962.215385 512 760.123077 61.784615 512 61.784615z" fill="#fac14d" p-id="2797"></path></svg>