<?xml version="1.0" standalone="no"?><!DOCTYPE svg PUBLIC "-//W3C//DTD SVG 1.1//EN" "http://www.w3.org/Graphics/SVG/1.1/DTD/svg11.dtd"><svg t="1634221748888" class="icon" viewBox="0 0 1024 1024" version="1.1" xmlns="http://www.w3.org/2000/svg" p-id="14027" width="128" height="128" xmlns:xlink="http://www.w3.org/1999/xlink"><defs><style type="text/css"></style></defs><path d="M768 341.333333h-42.666667v-85.333333c0-117.76-95.573333-213.333333-213.333333-213.333333S298.666667 138.24 298.666667 256v85.333333h-42.666667c-46.933333 0-85.333333 38.4-85.333333 85.333334v426.666666c0 46.933333 38.4 85.333333 85.333333 85.333334h512c46.933333 0 85.333333-38.4 85.333333-85.333334V426.666667c0-46.933333-38.4-85.333333-85.333333-85.333334z m-388.266667-85.333333c0-72.96 59.306667-132.266667 132.266667-132.266667s132.266667 59.306667 132.266667 132.266667v85.333333H379.733333v-85.333333zM682.666667 682.666667h-128v128h-85.333334v-128h-128v-85.333334h128v-128h85.333334v128h128v85.333334z" fill="#1296db" p-id="14028"></path></svg>