<?xml version="1.0" standalone="no"?><!DOCTYPE svg PUBLIC "-//W3C//DTD SVG 1.1//EN" "http://www.w3.org/Graphics/SVG/1.1/DTD/svg11.dtd"><svg t="1634221601230" class="icon" viewBox="0 0 1024 1024" version="1.1" xmlns="http://www.w3.org/2000/svg" p-id="11121" width="128" height="128" xmlns:xlink="http://www.w3.org/1999/xlink"><defs><style type="text/css"></style></defs><path d="M120.576 508.928l209.28-56.064a8 8 0 0 0 2.752-14.08L259.584 382.72a350.72 350.72 0 0 1 248.384-105.28v92.032c0.064 35.328 28.672 64 64 64h276.032c35.328 0 64-28.672 64-64V173.44c0-35.328-28.672-64-64-64H571.968c-35.328 0-63.936 28.672-64 64v28.032a426.688 426.688 0 0 0-309.056 134.656l-75.52-57.984a8 8 0 0 0-12.864 6.4V501.12a8 8 0 0 0 10.048 7.68zM571.968 173.44h276.032v195.968H571.968V173.504z m341.056 346.496a8 8 0 0 0-10.112-7.68l-209.28 56a8 8 0 0 0-2.752 14.08l73.024 56.064a350.72 350.72 0 0 1-247.872 105.216v-91.648c-0.064-35.392-28.672-64-64-64H176c-35.328 0-64 28.608-64 64v195.968c0 35.328 28.672 64 64 64h276.032c35.328 0 63.936-28.672 64-64v-28.352a426.688 426.688 0 0 0 308.544-134.656l75.52 57.984a8 8 0 0 0 12.928-6.4V520.064zM451.968 848H176v-196.032h276.032v196.032z" p-id="11122" fill="#6c55f9"></path></svg>